<?xml version="1.0" encoding="utf-8"?>
<!-- Generator: Adobe Illustrator 18.1.1, SVG Export Plug-In . SVG Version: 6.00 Build 0)  -->
<svg version="1.1" id="Layer_1" xmlns="http://www.w3.org/2000/svg" xmlns:xlink="http://www.w3.org/1999/xlink" x="0px" y="0px"
	 viewBox="0 0 122.5 126.2" enable-background="new 0 0 122.5 126.2" xml:space="preserve">
<g>
	<g>
		<g>
			<g>
				<path fill="#FFFFFF" d="M84,1.9l0,5.7c0,0-10.2-3.8-16.8,3.1c-4.8,5-5.2,10.6-3,18.1c21.6,0,25,12.1,25,12.1L87,27l6.8-8.3l0,0
					C93.8,8.9,85.7,2.4,84,1.9z"/>
			</g>
			<g>
				<path fill="#FFFFFF" d="M87.6,43.6"/>
			</g>
			<g>
				<circle cx="85.9" cy="15.9" r="2.6"/>
			</g>
			<g>
				<g>
					<path d="M89.2,40.9c0,0-3.3-16.6-24.9-12.1c-2.2-7.5-1.8-13,3-18.1C73.8,3.8,84,7.6,84,7.6l0-5.7C80.4,0.3,77,0,73.2,0
						C59.3,0,51.6,10.4,48.3,17.4L9.2,89.3l11-2.1L0,126.2l14.1-2.5L24.9,93C55.5,93,94.7,82,89.2,40.9z"/>
				</g>
			</g>
			<g>
				<polygon points="102.4,27 93.8,18.7 87,27 				"/>
			</g>
			<g>
				<path fill="#FFFFFF" d="M30,84.1c0,0,1-0.2,2.8-0.6c1.8-0.4,4.3-1,7.3-1.8c1.5-0.4,3.1-0.9,4.8-1.5c1.7-0.6,3.5-1.2,5.2-2
					c1.8-0.7,3.6-1.6,5.4-2.6c1.8-1,3.5-2.1,5.1-3.4c0.4-0.3,0.8-0.6,1.2-1l1.2-1c0.7-0.7,1.5-1.4,2.2-2.2c0.7-0.7,1.3-1.5,1.9-2.3
					c0.3-0.4,0.6-0.8,0.9-1.2l0.4-0.6l0.4-0.6c0.2-0.4,0.5-0.8,0.7-1.2c0.2-0.4,0.4-0.8,0.7-1.2c0.1-0.2,0.2-0.4,0.3-0.6
					c0.1-0.2,0.2-0.4,0.3-0.6c0.2-0.4,0.4-0.8,0.5-1.2c0.3-0.8,0.6-1.6,0.9-2.4c0.2-0.8,0.5-1.6,0.7-2.3c0.2-0.7,0.3-1.5,0.5-2.1
					c0.1-0.7,0.2-1.3,0.3-2c0.1-0.6,0.2-1.2,0.2-1.7c0.1-0.5,0.1-1,0.2-1.5c0.1-1.8,0.1-2.8,0.1-2.8l1.6,0.1c0,0-0.1,1.1-0.2,2.9
					c-0.1,0.5-0.1,1-0.2,1.5c-0.1,0.6-0.1,1.2-0.3,1.8c-0.1,0.6-0.3,1.3-0.4,2c-0.2,0.7-0.4,1.4-0.6,2.2c-0.2,0.8-0.5,1.5-0.8,2.4
					c-0.3,0.8-0.6,1.6-1,2.5c-0.2,0.4-0.4,0.8-0.6,1.2c-0.1,0.2-0.2,0.4-0.3,0.6c-0.1,0.2-0.2,0.4-0.3,0.6c-0.2,0.4-0.5,0.8-0.7,1.3
					c-0.3,0.4-0.5,0.8-0.8,1.2c-0.1,0.2-0.3,0.4-0.4,0.6l-0.4,0.6c-0.3,0.4-0.6,0.8-0.9,1.2c-0.7,0.8-1.3,1.6-2.1,2.3
					c-0.7,0.8-1.5,1.4-2.3,2.2l-1.2,1c-0.4,0.3-0.8,0.6-1.3,0.9c-1.7,1.2-3.5,2.3-5.3,3.3c-1.8,0.9-3.7,1.8-5.5,2.5
					c-1.8,0.7-3.6,1.3-5.3,1.8c-1.7,0.5-3.3,1-4.9,1.3c-3,0.7-5.6,1.3-7.4,1.6C31,83.9,30,84.1,30,84.1z"/>
			</g>
		</g>
	</g>
</g>
</svg>
